<svg width="242" height="175" viewBox="0 0 242 175" fill="none" xmlns="http://www.w3.org/2000/svg">
<path className="shrinking" d="M123.5 175C162.988 175 195 173.433 195 171.5C195 169.567 162.988 168 123.5 168C84.0117 168 52 169.567 52 171.5C52 173.433 84.0117 175 123.5 175Z" fill="#6C6F72"/>
<path className="float" d="M241.382 0.136414H0.102905V154.45H241.382V0.136414Z" fill="#E6E6E6"/>
<path className="float" d="M234.483 19.4911H7.00232V145.321H234.483V19.4911Z" fill="white"/>
<path className="float" d="M241.279 0H0V10.2363H241.279V0Z" fill="#6C63FF"/>
<path className="float" d="M7.61759 7.13099C8.66692 7.13099 9.51758 6.2815 9.51758 5.2336C9.51758 4.1857 8.66692 3.33621 7.61759 3.33621C6.56825 3.33621 5.71759 4.1857 5.71759 5.2336C5.71759 6.2815 6.56825 7.13099 7.61759 7.13099Z" fill="white"/>
<path className="float" d="M14.8287 7.13099C15.878 7.13099 16.7287 6.2815 16.7287 5.2336C16.7287 4.1857 15.878 3.33621 14.8287 3.33621C13.7794 3.33621 12.9287 4.1857 12.9287 5.2336C12.9287 6.2815 13.7794 7.13099 14.8287 7.13099Z" fill="white"/>
<path className="float" d="M22.0399 7.13099C23.0892 7.13099 23.9399 6.2815 23.9399 5.2336C23.9399 4.1857 23.0892 3.33621 22.0399 3.33621C20.9905 3.33621 20.1399 4.1857 20.1399 5.2336C20.1399 6.2815 20.9905 7.13099 22.0399 7.13099Z" fill="white"/>
<path className="float" d="M79.4828 29.841H34.991V78.0445H79.4828V29.841Z" fill="#E6E6E6"/>
<path className="float" d="M142.988 29.841H98.4962V78.0445H142.988V29.841Z" fill="#E6E6E6"/>
<path className="float" d="M206.493 29.841H162.001V78.0445H206.493V29.841Z" fill="#E6E6E6"/>
<path className="float" d="M79.4828 86.7694H34.991V134.973H79.4828V86.7694Z" fill="#E6E6E6"/>
<path className="float" d="M142.988 86.7694H98.4962V134.973H142.988V86.7694Z" fill="#E6E6E6"/>
<path className="float" d="M206.493 86.7694H162.001V134.973H206.493V86.7694Z" fill="#E6E6E6"/>
<path className="float" d="M109.25 99.1579L117.379 95.9484L118.324 111.996C118.324 111.996 120.026 116.904 119.459 118.792C119.459 118.792 119.837 122.002 118.891 122.19C117.946 122.379 115.299 122.757 115.112 122.568C114.924 122.379 114.923 121.813 114.923 121.813C114.923 121.813 113.032 123.134 112.843 124.644C112.843 124.644 104.903 127.099 104.714 124.833C104.525 122.568 108.684 120.679 108.684 120.679L111.898 115.771L109.25 99.1579Z" fill="white"/>
<path className="float" d="M126.454 99.1579L134.582 95.9484L135.528 111.996C135.528 111.996 137.229 116.904 136.662 118.792C136.662 118.792 137.04 122.002 136.095 122.19C135.149 122.379 132.502 122.757 132.315 122.568C132.128 122.379 132.126 121.813 132.126 121.813C132.126 121.813 130.235 123.134 130.046 124.644C130.046 124.644 122.106 127.099 121.917 124.833C121.728 122.568 125.887 120.679 125.887 120.679L129.101 115.771L126.454 99.1579Z" fill="white"/>
<path className="float" d="M127.248 37.1891C127.248 37.1891 125.518 42.0191 127.523 44.1972L125.851 49.9349C125.851 49.9349 131.792 67.7324 130.094 70.2184C130.094 70.2184 123.758 73.3823 111.083 69.0882L116.232 49.1438L115.496 40.7253L116.515 36.7702L118.778 36.546C118.778 36.546 117.42 41.6308 119.909 42.422C122.399 43.2132 124.827 36.673 124.827 36.673L127.248 37.1891Z" fill="#3F3D56"/>
<path className="float" d="M47.3113 68.3677L49.4957 69.2601L59.9211 55.577L63.1976 71.6396L65.382 71.2431C66.7831 57.3948 67.9268 43.27 66.5238 36.5893L58.4317 36.2421L54.7582 47.9437L52.9708 55.876L47.3113 68.3677Z" fill="white"/>
<path className="float" d="M179.887 36.4798C179.887 36.4798 176.906 40.6184 177.051 42.2886C177.197 43.9587 179.087 71.1874 179.087 71.1874L183.523 71.4053L182.213 51.8006L183.303 46.5L185.994 71.1874L191.447 71.3328L186.576 39.3119L185.63 36.4802L179.887 36.4798Z" fill="white"/>
<path className="float" d="M196.736 103.154C195.944 102.206 194.584 101.693 193.277 101.416C193.315 101.297 189.303 100.469 189.235 100.64L187.723 99.4367L183.076 101.846L180.465 100.071L179.252 100.501C179.302 100.287 175.487 100.947 175.487 100.947C174.758 100.973 173.828 101.019 172.786 101.099C169.137 101.379 168.856 110.815 168.856 110.815C170.535 110.13 172.325 109.755 174.138 109.711L175.124 120.998C180.196 120.563 185.515 121.069 191.029 122.306L193.615 113.433L199.636 111.095C199.636 111.095 198.607 105.396 196.736 103.154Z" fill="#3F3D56"/>
<path className="float" d="M67.5275 97.7796C66.8752 96.9982 65.7543 96.5755 64.6777 96.3472C64.7099 96.2492 61.4035 95.5676 61.347 95.7081L60.1008 94.717L56.2727 96.7022L54.1212 95.2398L53.122 95.5941C53.1628 95.4181 50.0196 95.9615 50.0196 95.9615C49.4208 95.9831 48.6522 96.0205 47.794 96.0867C44.7878 96.3176 44.5565 104.092 44.5565 104.092C45.9397 103.527 47.4145 103.219 48.9085 103.182L49.721 125.947C53.9001 125.589 58.2831 126.006 62.8248 127.025L64.955 106.25L69.9162 104.323C69.9162 104.323 69.069 99.6277 67.5275 97.7796Z" fill="white"/>
</svg>
